<svg xmlns="http://www.w3.org/2000/svg" viewBox="0 0 24 24" fill="#475569">
  <path d="M2.1 3.51 1 4.61l4.05 4.05C3.06 10.22 1.68 12 1 12c1.73 4.39 5.96 7.5 11 7.5 2.08 0 4.03-.53 5.73-1.47l3.66 3.66 1.1-1.1L2.1 3.51Zm9.9 3.49a5 5 0 0 1 5 5c0 .79-.19 1.53-.52 2.19l-1.55-1.55a3 3 0 0 0-3.38-3.38L9.81 7.52A4.9 4.9 0 0 1 12 7Zm0 10.5c-3.73 0-7-2.08-8.65-5.5.54-.9 1.28-1.73 2.17-2.42l1.51 1.51a5 5 0 0 0 6.88 6.88l1.62 1.62a8.8 8.8 0 0 1-3.53.91Zm.16-8.99 3.33 3.33a3 3 0 0 1-3.49 3.49l-3.33-3.33a3 3 0 0 1 3.49-3.49Zm-.16-4.01c5.04 0 9.27 3.11 11 7.5-.55 1.4-1.38 2.66-2.42 3.71l-1.42-1.42A9.8 9.8 0 0 0 20.65 12c-1.65-3.42-4.92-5.5-8.65-5.5-.87 0-1.71.11-2.51.32L7.9 5.23A11.3 11.3 0 0 1 12 4.5Z"/>
</svg>
